<svg id="Layer_1" data-name="Layer 1" xmlns="http://www.w3.org/2000/svg" viewBox="0 0 831.13 343.15"><defs><style>.cls-1{fill:#fff;}</style></defs><path class="cls-1" d="M280.76,156.18V41.62h48q19.57,0,29.79,9.18t10.22,26.67q0,18.52-10.22,28.18t-29.79,9.66c-9.24-.06-17.22,0-24,.09v40.78Zm24-60.61h19.93q10,0,15.05-4.46t5-13.38c0-5.49-1.68-9.58-5-12.3s-8.36-4.06-15.05-4.06H304.74Z"/><path class="cls-1" d="M385.28,156.18V71.41h21.3V86.56a43.46,43.46,0,0,1,2.6-4.76q7.88-12.64,20.34-12.64l5.12.08V92c-2-.18-4.27-.26-6.76-.26q-10.22,0-15.24,5.06t-5,15.37v44Z"/><path class="cls-1" d="M481.13,158.34q-19.39,0-29.87-11.9t-10.48-34q0-20.34,10.69-31.82t29.66-11.47q19.39,0,29.87,11.73t10.48,33.38a16.41,16.41,0,0,1-.44,5H463.29q.78,10,4.5,15.07,4.68,6.24,15.59,6.23a16.41,16.41,0,0,0,9.35-2.9q4.32-2.9,5.2-6.88h22.76A32.53,32.53,0,0,1,507.28,151Q496.8,158.34,481.13,158.34Zm17.05-53.25q-.76-7.71-4.06-12-4.33-5.72-13.34-5.71-8.65,0-13.16,6.67a28,28,0,0,0-4.07,11Z"/><path class="cls-1" d="M575.25,156.61c-3.75.35-8.38.52-13.86.52q-11.77,0-17-4.24T539.22,139V87.08H527.45V71.41h11.77V48.55h22.34V71.41h13.69V87.08H561.56v48.15c0,2,.6,3.26,1.78,3.89s3.62.95,7.31.95h4.6Z"/><path class="cls-1" d="M628.42,156.61q-5.62.52-13.85.52-11.79,0-17-4.24T592.4,139V87.08H580.62V71.41H592.4V48.55h22.34V71.41h13.68V87.08H614.74v48.15c0,2,.59,3.26,1.77,3.89s3.63.95,7.32.95h4.59Z"/><path class="cls-1" d="M663,158.34q-11.78,0-19-6.7t-7.2-17.71q0-11.61,6.46-18.62t18.92-8.75l14.72-2.07a32.51,32.51,0,0,0,9.53-2.6A5.36,5.36,0,0,0,689,99.07a7.67,7.67,0,0,0,.65-4.11A7.39,7.39,0,0,0,686,89.33q-3.81-2.42-11-2.42-6.4,0-10,3.12t-3.76,8.83H639.76q.69-14.89,10.12-22.3t27.71-7.4q15.76,0,24.94,6.67A21.27,21.27,0,0,1,711.71,94v47.36c0,3.81.31,6.48.95,8a7.07,7.07,0,0,0,3.72,3.59v3.11H692.22a57.64,57.64,0,0,1-2-10v-.17Q679.68,158.35,663,158.34Zm26.84-33.51v-9.69a36.46,36.46,0,0,1-10.3,3.46l-8.22,1.56q-5.89,1.13-8.93,4a9.87,9.87,0,0,0-3,7.41,11.08,11.08,0,0,0,2.73,7.92,10,10,0,0,0,7.66,2.9q10.74,0,17.15-7.62a12.56,12.56,0,0,0,2.08-4.33A19.55,19.55,0,0,0,689.8,124.83Z"/><path class="cls-1" d="M753.88,71.41v53.08q0,7.79,3.33,11.51c2.22,2.49,5.65,3.73,10.26,3.73q8.76,0,13.43-5.28t4.67-15.24V71.41h22.34v84.77h-21.2V143.45a28.34,28.34,0,0,1-2.87,4.42q-8.22,10.47-23.9,10.47-13.41,0-21-7.88t-7.54-21.9V71.41Z"/><path class="cls-1" d="M277.19,307.92V227.06h34.59q16.7,0,25.37,9.77t8.68,28.67q0,20.78-9,31.6t-26.37,10.82ZM294.12,294h14.24q10.26,0,15.4-6.93t5.14-20.88q0-12.59-4.77-18.88T309.7,241H294.12Z"/><path class="cls-1" d="M381,309.45q-13.69,0-21.08-8.41t-7.4-24q0-14.35,7.55-22.46t20.93-8.1q13.7,0,21.09,8.28t7.39,23.57a11.48,11.48,0,0,1-.3,3.54H368.44q.56,7.1,3.18,10.64,3.3,4.39,11,4.4a11.66,11.66,0,0,0,6.6-2.05,8,8,0,0,0,3.67-4.86H409a23,23,0,0,1-9.47,14.27Q392.1,309.46,381,309.45Zm12-37.59a16.2,16.2,0,0,0-2.87-8.44q-3.06-4-9.41-4a10.51,10.51,0,0,0-9.29,4.7,19.66,19.66,0,0,0-2.88,7.77Z"/><path class="cls-1" d="M420,307.92V248.08h15v8.86c.65-1.06,1.35-2.07,2.08-3.05q5.81-7.39,16.93-7.4,9.48,0,14.82,5.59t5.35,15.56v40.28H458.35V270.51q0-5.56-2.38-8.22t-7.34-2.66q-6.22,0-9.56,3.73t-3.33,10.76v33.8Z"/><path class="cls-1" d="M516.29,308.22q-4,.38-9.78.37-8.31,0-12-3t-3.66-9.84V259.14h-8.32V248.08h8.32V231.94h15.77v16.14h9.65v11.06h-9.65v34a2.83,2.83,0,0,0,1.25,2.75c.83.45,2.56.67,5.16.67h3.24Z"/><path class="cls-1" d="M540.68,309.45q-8.31,0-13.38-4.74t-5.08-12.5q0-8.19,4.56-13.14t13.35-6.17l10.39-1.47a23.26,23.26,0,0,0,6.73-1.83,3.81,3.81,0,0,0,1.8-2,5.38,5.38,0,0,0,.46-2.9,5.22,5.22,0,0,0-2.57-4q-2.69-1.71-7.76-1.71a10.45,10.45,0,0,0-7.06,2.2,8.17,8.17,0,0,0-2.66,6.24H524.3q.5-10.51,7.15-15.74T551,246.49q11.13,0,17.6,4.71A15,15,0,0,1,575.09,264v33.44a16.63,16.63,0,0,0,.67,5.65,5,5,0,0,0,2.63,2.54v2.2h-17a42.14,42.14,0,0,1-1.41-7.09v-.12A24.07,24.07,0,0,1,540.68,309.45Zm19-23.66V279a25.56,25.56,0,0,1-7.27,2.44l-5.81,1.1a12.31,12.31,0,0,0-6.3,2.84,7,7,0,0,0-2.14,5.23,7.84,7.84,0,0,0,1.93,5.59,7,7,0,0,0,5.41,2.05,15,15,0,0,0,12.1-5.38,8.93,8.93,0,0,0,1.47-3.05A13.61,13.61,0,0,0,559.63,285.79Z"/><path class="cls-1" d="M589.39,307.92V227.06h15.77v80.86Z"/><path class="cls-1" d="M643.12,307.92V227.06h16.93v66.5h40.22v14.36Z"/><path class="cls-1" d="M725.08,309.45q-8.31,0-13.38-4.74t-5.07-12.5q0-8.19,4.55-13.14t13.35-6.17l10.4-1.47a23.19,23.19,0,0,0,6.72-1.83,3.81,3.81,0,0,0,1.8-2,5.38,5.38,0,0,0,.46-2.9,5.2,5.2,0,0,0-2.57-4q-2.69-1.71-7.76-1.71a10.47,10.47,0,0,0-7.06,2.2,8.17,8.17,0,0,0-2.66,6.24H708.7q.49-10.51,7.16-15.74t19.55-5.23q11.13,0,17.61,4.71A15,15,0,0,1,759.5,264v33.44a16.38,16.38,0,0,0,.67,5.65,4.92,4.92,0,0,0,2.63,2.54v2.2H745.74a41.12,41.12,0,0,1-1.4-7.09v-.12A24.09,24.09,0,0,1,725.08,309.45ZM744,285.79V279a25.56,25.56,0,0,1-7.27,2.44l-5.81,1.1a12.24,12.24,0,0,0-6.29,2.84,6.92,6.92,0,0,0-2.14,5.23,7.84,7.84,0,0,0,1.92,5.59,7.06,7.06,0,0,0,5.41,2.05,15,15,0,0,0,12.1-5.38,8.93,8.93,0,0,0,1.47-3.05A13.61,13.61,0,0,0,744,285.79Z"/><path class="cls-1" d="M772.88,227.06h15.83V255.9l.31-.48q6.42-8.92,16.87-8.93,11.37,0,18.3,8.41t6.94,22.15q0,14.61-6.94,23.5a22.07,22.07,0,0,1-18.3,8.9A20.23,20.23,0,0,1,789,301.07l-.67-.85v7.7H772.88Zm28.48,69.43a11.73,11.73,0,0,0,9.94-4.77q3.57-4.77,3.57-13.2,0-8.68-3.57-13.54a12.41,12.41,0,0,0-19.81.15q-3.57,5-3.57,13.94,0,8.19,3.6,12.77A11.59,11.59,0,0,0,801.36,296.49Z"/><path class="cls-1" d="M93,50.88c-6.36-1.73-12.63-3.54-19-5.11-11.19-2.79-22.49-5-34.1-5a37.67,37.67,0,0,0-10.81,1.34c-6.4,1.88-9,5.22-9.22,11.84-.22,8.6,1.37,17,2.84,25.4,3,17.13,6.61,34.15,9.67,51.28a152,152,0,0,1,.07,52.88c-2.65,15.44-4.21,31-2.19,46.77,1.51,11.74,6,22.34,12.24,32.26A113.64,113.64,0,0,0,61.7,285.6a9.38,9.38,0,0,1,.88,1.18,11.25,11.25,0,0,1-5-.67C45,282.55,36.05,274.29,29,263.74c-10.21-15.33-14.41-32.33-14-50.67a329,329,0,0,1,2.84-37.41,142.74,142.74,0,0,0-5.15-63.12c-3.79-12.09-7.59-24.2-10-36.68C1.16,67.28.53,58.62,2.1,49.92c3-16.63,14-24.84,30.06-25.7C48,23.37,61.79,29.45,75,37.39A144.9,144.9,0,0,1,91.36,49C92,49.52,92.85,49.8,93,50.88Z"/><path class="cls-1" d="M176.63,192.21c1.29-7.06,2.63-14.12,3.86-21.2,3.91-22.51,8.54-44.91,11.42-67.59,1.33-10.5,1.45-21-1.24-31.35a42,42,0,0,0-7.83-15.94c-5.54-6.87-13.11-8.54-21.45-7.83-10.4.89-19.93,4.74-29.33,8.92-5.9,2.63-11.7,5.47-17.54,8.23-14.85,7-30.17,7.44-45.82,3.3a4.19,4.19,0,0,1-.8-.52c1.37-.9,2.87-.91,4.21-1.26,14.08-3.64,27-10,39.63-16.95,8.79-4.79,17.26-10.27,26.67-13.8,13.42-5,27.21-7.35,41.41-3.77,13.4,3.37,21.4,12.19,24.8,25.44,2.65,10.33,1.68,20.73.8,31.14-2.14,25.44-6.73,50.38-15.11,74.56a159.28,159.28,0,0,1-12.53,27.81c-.21.35-.45.67-.67,1Z"/><path class="cls-1" d="M69,96.54q-1.62,13.06-3.25,26.12c-2.33,18.51-4.3,37-3,55.74.59,8.63,1.81,17.14,5.32,25.15,5,11.49,14.87,16.22,27,12.86,9.4-2.61,17.19-8.06,24.46-14.32,2.76-2.38,5.31-5,8-7.47a38.54,38.54,0,0,1,3.58-3.06c.69-.5,1.57-1.27,2.46-.76s.33,1.53.36,2.32a29.49,29.49,0,0,0,1,6.87c2.46,8.7,9.82,12,17.82,7.73a17,17,0,0,0,9.15-13.43c.46-3.64-.88-7-4.16-8.67-5.51-2.72-6.13-7.11-5.24-12.29.32-1.87,1-3.68,1.37-5.54s1.24-1.59,2.51-1a11.49,11.49,0,0,1,5.93,7.07c4.73,15.24,4.4,29.9-5.79,43.16a16.57,16.57,0,0,1-7,5.43c-6.34,2.54-11.86.53-15.14-5.48a23.25,23.25,0,0,1-2.08-5.31c-.47-1.82-.79-3.68-1.15-5.45a.7.7,0,0,0-.93.33c-10.34,13.94-24.7,21.12-41.29,24.52-5.74,1.18-11.51,1.51-17.24-.06-9.42-2.59-14.63-9.27-17.2-18.26-2.66-9.26-2.76-18.82-2.55-28.35.57-26,5.79-51.29,13-76.2.58-2,1.22-4,1.84-5.93s1.25-3.93,1.88-5.9Z"/><path class="cls-1" d="M34.09,300.16c2.44,1.58,4.32,2.86,6.26,4a39.44,39.44,0,0,0,14.25,5.58c7.07,1.14,13.31-1,18.92-5.07,12-8.64,19.06-20.24,20.67-35,.35-3.25-.65-4.28-4-4.41a9.54,9.54,0,0,0-4.46,1.34c-6.47,3-11.23.28-11.93-6.77a25.7,25.7,0,0,1,2.22-13.81c3.35-7.05,10.34-8.4,16.11-3.08,4.45,4.09,6.36,9.54,6.91,15.29,2,20.79-4.45,38.94-18.37,54.29C74,320,65.4,323.75,55,322c-6.79-1.13-11.43-5.33-15.27-10.63A40.32,40.32,0,0,1,34.09,300.16Z"/><path class="cls-1" d="M163,121.49l-15.47,9.73a2.2,2.2,0,0,1-1.67.2c-12.45-2.34-24.55-.39-36.53,3-8.34,2.37-16.66,4.77-25.21,7.81,1-2.1,2.67-3.05,4.18-4.06,6.6-4.4,14-7.06,21.4-9.74C126.87,122.21,144.73,121.08,163,121.49Z"/><path class="cls-1" d="M120.36,151.2c0,5.1-3.75,9.06-8.55,9s-8.52-4.21-8.49-9.2a8.66,8.66,0,0,1,8.5-8.86C116.65,142.13,120.35,146,120.36,151.2Z"/><path class="cls-1" d="M121.29,177.8a8.6,8.6,0,0,1-8.58,8.76,9,9,0,0,1,.14-18C117.56,168.58,121.32,172.71,121.29,177.8Z"/><path class="cls-1" d="M174.53,271.57c3.32,1.43,6.59,2.81,9.82,4.26.86.39.36,1.11.13,1.71-1.2,3.16-2.46,6.3-3.59,9.48-.48,1.39-1.1,1.56-2.37.94-2.52-1.23-5.1-2.33-7.68-3.42-1-.41-1.52-.83-1.07-2,1.22-3.24,2.36-6.52,3.53-9.77C173.52,272.13,173.68,271.43,174.53,271.57Z"/><path class="cls-1" d="M137,264.93c-1.43,3.79-2.79,7.51-4.24,11.2-.27.69-1,.41-1.5.15-2.71-1.22-5.41-2.48-8.15-3.64-1.09-.45-1.3-1-.88-2.1q1.8-4.74,3.44-9.55c.39-1.13.84-1.39,2-.87,2.63,1.2,5.32,2.25,8,3.39C136.33,263.79,137.13,264,137,264.93Z"/><path class="cls-1" d="M133.26,254.05c-3.12-1.42-6.29-2.83-9.42-4.31-.69-.32-.37-1-.18-1.54,1.13-3.19,2.32-6.36,3.37-9.58.45-1.41,1.09-1.56,2.35-1,2.45,1.17,5,2.26,7.47,3.29,1.29.53,1.78,1.09,1.16,2.57-1.29,3-2.35,6.17-3.5,9.27C134.28,253.38,134.26,254.16,133.26,254.05Z"/><path class="cls-1" d="M104.79,119.77c-.83-3.78-1.46-7.59-2.53-11.31a24.35,24.35,0,0,0-6.7-11.38,4.06,4.06,0,0,1-1.39-3.92c.32-2.27.45-4.56.71-7.49C103.1,96.07,107.35,106.93,104.79,119.77Z"/><path class="cls-1" d="M61.13,239.68c-1.36,2.66-3.11,5-4.12,7.84a13.25,13.25,0,0,0-1,4.07,2.56,2.56,0,0,0,1.25,2.52c1.05.59,1.93,0,2.66-.69s1.42-1.57,2.16-2.38c.94,3.43-.9,7.57-3.92,9A4.18,4.18,0,0,1,52,256.7a14.77,14.77,0,0,1,2.24-10.21A19.91,19.91,0,0,1,61.13,239.68Z"/><path class="cls-1" d="M153.1,101.27a12.5,12.5,0,0,1-2,6.41,4.28,4.28,0,0,1-4.2,2.12c-1.9-.28-2.66-1.79-3.07-3.48-1.42-5.75,2.26-14.21,7.48-16.47-.95,1.7-1.79,3.07-2.51,4.5A14.84,14.84,0,0,0,147,99.74c-.11,1.29,0,2.54,1.32,3.22s2.36,0,3.32-.88C152,101.77,152.22,101.24,153.1,101.27Z"/><path class="cls-1" d="M157.47,289.25c.62.74,1.23,1.49,1.87,2.21a11.68,11.68,0,0,0,8.43,4.18c1.62.07,2.23.7,2.11,2.24a8.59,8.59,0,0,0,.07,1.24c.34,3.73.08,3.88-3.61,2.69C160.3,299.88,158.23,295.06,157.47,289.25Z"/><path class="cls-1" d="M106.83,285.77a44.58,44.58,0,0,0-.8,28.4c2.69,8.72,10.16,12.49,18.76,9.57,4.15-1.4,7-4.32,9.3-7.87,3.84-5.9,6-12.54,8-19.21,3.26-10.83,7.28-21.3,13.31-31,4-6.46,9.28-11.34,16.46-14.14a84.85,84.85,0,0,0,8.3-3.93,16.27,16.27,0,0,0,8.12-9.92c2-6.35,2.17-12.87,1.73-19.44,0-.1-.22-.18-.34-.27-.45.21-.44.66-.53,1.05-2.19,9.54-6.57,16.83-17.37,18.49-5.37.83-9.74,4-13.36,8.1a53.55,53.55,0,0,0-8.61,14.17c-5.3,12-9.7,24.31-15.34,36.13-2.18,4.58-4.52,9-8.17,12.67-5.42,5.42-17.26,1.84-18.49-4.85-1.41-7.73,1.73-20.48,4.32-30A92.08,92.08,0,0,0,106.83,285.77Z"/></svg>